<mxfile host="app.diagrams.net" modified="2021-12-03T06:45:39.394Z" agent="5.0 (Windows NT 10.0; Win64; x64) AppleWebKit/537.36 (KHTML, like Gecko) Chrome/96.0.4664.55 Safari/537.36 Edg/96.0.1054.41" etag="LgXgZF-k8MZrWr0kG3SJ" version="15.8.8" type="github">
  <diagram id="CllEI-uORUCB0QmieB56" name="Page-1">
    <mxGraphModel dx="716" dy="402" grid="1" gridSize="10" guides="1" tooltips="1" connect="1" arrows="1" fold="1" page="1" pageScale="1" pageWidth="827" pageHeight="1169" math="0" shadow="0">
      <root>
        <mxCell id="0" />
        <mxCell id="1" parent="0" />
        <mxCell id="IDPEV3gX2nPabyjfzZF8-5" style="edgeStyle=orthogonalEdgeStyle;rounded=0;orthogonalLoop=1;jettySize=auto;html=1;" edge="1" parent="1" source="IDPEV3gX2nPabyjfzZF8-1" target="IDPEV3gX2nPabyjfzZF8-4">
          <mxGeometry relative="1" as="geometry" />
        </mxCell>
        <mxCell id="IDPEV3gX2nPabyjfzZF8-1" value="Entity" style="shape=umlActor;verticalLabelPosition=bottom;verticalAlign=top;html=1;outlineConnect=0;" vertex="1" parent="1">
          <mxGeometry x="220" y="220" width="30" height="60" as="geometry" />
        </mxCell>
        <mxCell id="IDPEV3gX2nPabyjfzZF8-10" style="edgeStyle=orthogonalEdgeStyle;rounded=0;orthogonalLoop=1;jettySize=auto;html=1;entryX=0;entryY=0.5;entryDx=0;entryDy=0;entryPerimeter=0;" edge="1" parent="1" source="IDPEV3gX2nPabyjfzZF8-4" target="IDPEV3gX2nPabyjfzZF8-6">
          <mxGeometry relative="1" as="geometry">
            <Array as="points">
              <mxPoint x="480" y="250" />
              <mxPoint x="480" y="200" />
            </Array>
          </mxGeometry>
        </mxCell>
        <mxCell id="IDPEV3gX2nPabyjfzZF8-11" style="edgeStyle=orthogonalEdgeStyle;rounded=0;orthogonalLoop=1;jettySize=auto;html=1;entryX=0.058;entryY=0.492;entryDx=0;entryDy=0;entryPerimeter=0;" edge="1" parent="1" source="IDPEV3gX2nPabyjfzZF8-4" target="IDPEV3gX2nPabyjfzZF8-9">
          <mxGeometry relative="1" as="geometry">
            <Array as="points">
              <mxPoint x="480" y="250" />
              <mxPoint x="480" y="280" />
            </Array>
          </mxGeometry>
        </mxCell>
        <mxCell id="IDPEV3gX2nPabyjfzZF8-4" value="Change Log" style="shape=cylinder3;whiteSpace=wrap;html=1;boundedLbl=1;backgroundOutline=1;size=15;" vertex="1" parent="1">
          <mxGeometry x="370" y="210" width="60" height="80" as="geometry" />
        </mxCell>
        <mxCell id="IDPEV3gX2nPabyjfzZF8-6" value="MongoDB" style="strokeWidth=2;html=1;shape=mxgraph.flowchart.database;whiteSpace=wrap;" vertex="1" parent="1">
          <mxGeometry x="520" y="170" width="60" height="60" as="geometry" />
        </mxCell>
        <mxCell id="IDPEV3gX2nPabyjfzZF8-9" value="client" style="html=1;verticalLabelPosition=bottom;labelBackgroundColor=#ffffff;verticalAlign=top;shadow=0;dashed=0;strokeWidth=1;shape=mxgraph.ios7.misc.iphone;strokeColor=#c0c0c0;" vertex="1" parent="1">
          <mxGeometry x="530" y="250" width="40" height="60" as="geometry" />
        </mxCell>
        <mxCell id="IDPEV3gX2nPabyjfzZF8-12" value="Change" style="text;html=1;resizable=0;autosize=1;align=center;verticalAlign=middle;points=[];fillColor=none;strokeColor=none;rounded=0;" vertex="1" parent="1">
          <mxGeometry x="270" y="230" width="60" height="20" as="geometry" />
        </mxCell>
      </root>
    </mxGraphModel>
  </diagram>
</mxfile>
